<svg xmlns="http://www.w3.org/2000/svg" width="256" height="256" viewBox="0 0 256 256">
  <rect width="256" height="256" fill="#4A90E2" rx="32" ry="32"/>
  <path d="M213.33,64H42.67A21.33,21.33,0,0,0,21.33,85.33v128A21.33,21.33,0,0,0,42.67,234.67H213.33a21.33,21.33,0,0,0,21.33-21.33v-128A21.33,21.33,0,0,0,213.33,64ZM170.67,42.67a21.33,21.33,0,0,0-21.33-21.33H106.67a21.33,21.33,0,0,0-21.33,21.33V64h85.33Z" fill="#FFFFFF"/>
  <circle cx="128" cy="149.33" r="32" fill="#FFFFFF"/>
  <path d="M149.33,149.33L117.33,128v42.67Z" fill="#4A90E2"/>
</svg>
